<svg xmlns="http://www.w3.org/2000/svg" width="1920" height="180" viewBox="0 0 1920 180"><rect width="100%" height="100%" fill="#DDDDDD"/><path fill="#999999" d="M762.385 114.215h11.7v8.32h-36v-8.32h13.18v-37.94q0-2.25.14-4.63l-9.36 7.83q-.81.63-1.6.78-.79.16-1.49.03-.69-.14-1.23-.48-.54-.33-.81-.74l-3.51-4.81 19.84-16.88h9.14v56.84Zm32.17-37.22q0 5.45 2.81 8.3 2.81 2.86 7.99 2.86 2.7 0 4.82-.85 2.11-.86 3.55-2.34 1.44-1.49 2.18-3.52.74-2.02.74-4.36 0-2.65-.81-4.75-.81-2.09-2.29-3.53-1.49-1.44-3.53-2.2-2.05-.77-4.48-.77-2.52 0-4.55.83-2.02.84-3.46 2.32-1.44 1.49-2.2 3.53-.77 2.05-.77 4.48Zm-5.44 45.54 20.2-25.24q.77-.95 1.44-1.85.67-.9 1.3-1.8-2.25 1.44-4.94 2.18-2.7.75-5.68.75-3.37 0-6.61-1.17t-5.76-3.54q-2.52-2.36-4.07-5.85-1.55-3.48-1.55-8.16 0-4.37 1.61-8.2 1.62-3.82 4.55-6.7 2.92-2.88 7.02-4.55 4.1-1.66 9.05-1.66 4.99 0 8.97 1.57 3.98 1.58 6.8 4.42 2.81 2.83 4.32 6.79 1.5 3.96 1.5 8.69 0 3.01-.51 5.71-.52 2.7-1.46 5.2-.95 2.5-2.3 4.88-1.35 2.39-3.01 4.73l-14.9 21.24q-.76 1.08-2.29 1.82t-3.47.74h-10.21Zm70.24-10.35h16.69q1.8 0 2.86 1.01 1.06 1.02 1.06 2.68v6.66h-44.64v-3.69q0-1.12.47-2.36.47-1.24 1.51-2.23l19.75-19.8q2.48-2.52 4.44-4.81 1.95-2.3 3.26-4.55 1.3-2.25 2-4.57.7-2.31.7-4.88 0-2.34-.68-4.12-.67-1.77-1.91-2.99-1.24-1.21-2.97-1.82-1.73-.61-3.89-.61-1.98 0-3.67.56-1.69.57-2.99 1.58-1.31 1.01-2.21 2.36-.9 1.35-1.35 2.97-.76 2.07-1.98 2.75-1.21.67-3.51.31l-5.85-1.03q.68-4.68 2.61-8.22 1.94-3.53 4.84-5.89 2.9-2.37 6.66-3.56 3.76-1.19 8.08-1.19 4.5 0 8.23 1.33 3.74 1.33 6.39 3.76 2.66 2.43 4.14 5.85 1.49 3.42 1.49 7.6 0 3.6-1.06 6.66t-2.83 5.85q-1.78 2.79-4.17 5.4-2.38 2.61-4.99 5.31l-14.67 14.99q2.11-.63 4.21-.97 2.09-.34 3.98-.34Zm74.7-22.18q0 8.5-1.82 14.78-1.83 6.28-5.04 10.37-3.22 4.1-7.61 6.1-4.39 2-9.47 2-5.09 0-9.43-2t-7.54-6.1q-3.19-4.09-4.99-10.37-1.8-6.28-1.8-14.78 0-8.56 1.8-14.81t4.99-10.35q3.2-4.09 7.54-6.1 4.34-2 9.43-2 5.08 0 9.47 2 4.39 2.01 7.61 6.1 3.21 4.1 5.04 10.35 1.82 6.25 1.82 14.81Zm-11.48 0q0-7.07-1.03-11.7-1.04-4.64-2.77-7.38-1.73-2.75-3.98-3.85t-4.68-1.1q-2.39 0-4.61 1.1-2.23 1.1-3.94 3.85-1.71 2.74-2.72 7.38-1.02 4.63-1.02 11.7 0 7.06 1.02 11.69 1.01 4.64 2.72 7.38 1.71 2.75 3.94 3.85 2.22 1.11 4.61 1.11 2.43 0 4.68-1.11 2.25-1.1 3.98-3.85 1.73-2.74 2.77-7.38 1.03-4.63 1.03-11.69Zm82.94 17.64-5.9 5.8-15.25-15.25-15.39 15.34-5.9-5.8 15.39-15.44-14.67-14.67 5.85-5.85 14.67 14.67 14.58-14.58 5.94 5.85-14.62 14.62 15.3 15.31Zm61.6 6.57h11.7v8.32h-36v-8.32h13.19v-37.94q0-2.25.13-4.63l-9.36 7.83q-.81.63-1.59.78-.79.16-1.49.03-.7-.14-1.24-.48-.54-.33-.81-.74l-3.51-4.81 19.85-16.88h9.13v56.84Zm43.43.36q2.74 0 4.81-.79 2.07-.79 3.49-2.18 1.42-1.4 2.14-3.33.72-1.94.72-4.19 0-5.35-2.97-8.1-2.97-2.74-8.19-2.74-5.22 0-8.19 2.74-2.97 2.75-2.97 8.1 0 2.25.72 4.19.72 1.93 2.14 3.33 1.41 1.39 3.48 2.18 2.07.79 4.82.79Zm0-49.46q-2.48 0-4.28.76-1.8.77-2.99 2.05-1.19 1.29-1.75 2.95-.57 1.67-.57 3.51 0 1.94.48 3.76.47 1.82 1.59 3.24 1.13 1.42 2.97 2.27 1.85.86 4.55.86 2.7 0 4.54-.86 1.85-.85 2.97-2.27 1.13-1.42 1.6-3.24.47-1.82.47-3.76 0-1.84-.58-3.51-.59-1.66-1.76-2.95-1.17-1.28-2.97-2.05-1.8-.76-4.27-.76Zm10.98 23.49q5.94 1.94 8.77 5.92 2.84 3.98 2.84 9.74 0 4.32-1.64 7.83-1.65 3.51-4.62 5.98-2.97 2.48-7.13 3.83t-9.2 1.35q-5.04 0-9.2-1.35-4.17-1.35-7.14-3.83-2.97-2.47-4.61-5.98-1.64-3.51-1.64-7.83 0-5.76 2.83-9.74 2.84-3.98 8.78-5.92-4.73-1.98-7.09-5.62-2.36-3.65-2.36-8.78 0-3.69 1.51-6.88 1.5-3.2 4.2-5.56 2.7-2.36 6.46-3.69t8.26-1.33q4.5 0 8.26 1.33 3.75 1.33 6.45 3.69t4.21 5.56q1.51 3.19 1.51 6.88 0 5.13-2.36 8.78-2.37 3.64-7.09 5.62Zm65.07 1.4q0 8.5-1.82 14.78-1.83 6.28-5.04 10.37-3.22 4.1-7.61 6.1-4.39 2-9.47 2-5.09 0-9.43-2t-7.54-6.1q-3.19-4.09-4.99-10.37-1.8-6.28-1.8-14.78 0-8.56 1.8-14.81t4.99-10.35q3.2-4.09 7.54-6.1 4.34-2 9.43-2 5.08 0 9.47 2 4.39 2.01 7.61 6.1 3.21 4.1 5.04 10.35 1.82 6.25 1.82 14.81Zm-11.48 0q0-7.07-1.03-11.7-1.04-4.64-2.77-7.38-1.73-2.75-3.98-3.85t-4.68-1.1q-2.39 0-4.61 1.1-2.23 1.1-3.94 3.85-1.71 2.74-2.72 7.38-1.02 4.63-1.02 11.7 0 7.06 1.02 11.69 1.01 4.64 2.72 7.38 1.71 2.75 3.94 3.85 2.22 1.11 4.61 1.11 2.43 0 4.68-1.11 2.25-1.1 3.98-3.85 1.73-2.74 2.77-7.38 1.03-4.63 1.03-11.69Z"/></svg>